<svg xmlns="http://www.w3.org/2000/svg" fill="none" viewBox="0 0 42 40">
  <path fill="#001A4C" fill-rule="evenodd" d="M7.067 23.38c0 .236.191.427.428.427h4.21a.428.428 0 00.428-.428v-2.103h2.105a.428.428 0 00.429-.428v-1.676a.428.428 0 00-.429-.428H7.495a.428.428 0 00-.428.428v4.207zm0-9.285a.428.428 0 00-.429-.428h-4.21a.428.428 0 00-.428.428v4.207c0 .236.192.428.428.428h1.677a.428.428 0 00.428-.428v-2.104h2.105a.428.428 0 00.429-.428v-1.675zM9.6 29.284a.428.428 0 00-.428-.428H7.495a.428.428 0 00-.428.428v1.675c0 .237.191.428.428.428h1.677a.428.428 0 00.428-.428v-1.675zm29.972-15.617h-4.21a.428.428 0 00-.429.428v1.675c0 .236.192.428.429.428h2.105v2.104c0 .236.191.428.428.428h1.677a.428.428 0 00.428-.428v-4.207a.428.428 0 00-.428-.428zm-5.067 5.063h-6.743a.428.428 0 00-.429.428v1.675c0 .237.192.428.429.428h2.105v2.104c0 .236.191.428.428.428h4.21a.428.428 0 00.428-.428v-4.207a.428.428 0 00-.428-.428zm-2.533 12.672h-2.105v-2.104a.428.428 0 00-.429-.428h-2.105v-4.635a.428.428 0 00-.428-.428H24.8v-4.635a.428.428 0 00-.428-.428h-6.744a.428.428 0 00-.428.428v4.635h-2.105a.428.428 0 00-.428.428v4.635h-2.105a.428.428 0 00-.429.428v2.104h-2.105a.428.428 0 00-.428.428v1.675c0 .237.192.428.428.428h4.21a.428.428 0 00.429-.428v-2.103h2.105a.428.428 0 00.428-.428v-4.635h7.6v4.635c0 .236.192.428.428.428h2.105v2.103c0 .237.192.428.429.428h4.21a.428.428 0 00.428-.428V31.83a.428.428 0 00-.428-.428zm2.533-2.546h-1.677a.428.428 0 00-.428.428v1.675c0 .237.192.428.428.428h1.677a.428.428 0 00.428-.428v-1.675a.428.428 0 00-.428-.428z" clip-rule="evenodd"/>
  <path fill="#2BD4AB" fill-rule="evenodd" d="M12.562 13.667h16.876a.428.428 0 00.429-.428v-1.677a.428.428 0 00-.429-.429h-2.105V9.028a.428.428 0 00-.428-.428H24.8V6.495a.428.428 0 00-.428-.428h-6.744a.428.428 0 00-.428.428V8.6h-2.105a.428.428 0 00-.428.428v2.105h-2.105a.428.428 0 00-.429.429v1.677c0 .236.192.428.429.428z" clip-rule="evenodd"/>
</svg>
